<?xml version="1.0" encoding="UTF-8" standalone="no"?>
<svg width="705px" height="304px" viewBox="0 0 705 304" version="1.1" xmlns="http://www.w3.org/2000/svg" xmlns:xlink="http://www.w3.org/1999/xlink">
    <!-- Generator: Sketch 49.3 (51167) - http://www.bohemiancoding.com/sketch -->
    <title>Group 3</title>
    <desc>Created with Sketch.</desc>
    <defs></defs>
    <g id="Page-1" stroke="none" stroke-width="1" fill="none" fill-rule="evenodd">
        <g id="Group-3" transform="translate(352.500000, 152.000000) rotate(90.000000) translate(-352.500000, -152.000000) translate(204.000000, -197.000000)">
            <g id="Group" transform="translate(112.000000, 0.000000)" stroke="#FDB323">
                <circle id="Oval" stroke-width="7" cx="36.5" cy="134.5" r="36.5"></circle>
                <circle id="Oval-Copy-2" stroke-width="7" cx="36.5" cy="567.5" r="36.5"></circle>
                <path d="M36.5,0.544033122 L36.5,79.9992625" id="Line" stroke-width="8" stroke-linecap="square"></path>
                <path d="M36.5,189.994658 L36.5,282.164246" id="Line-Copy-2" stroke-width="8" stroke-linecap="square"></path>
                <path d="M36.5,403.806399 L36.5,513.019524" id="Line-Copy" stroke-width="8" stroke-linecap="square"></path>
                <path d="M36.5,697.001623 L36.5,619.967502" id="Line-Copy-3" stroke-width="8" stroke-linecap="square"></path>
                <circle id="Oval-Copy-4" stroke-width="7" cx="148.5" cy="277.5" r="36.5"></circle>
                <circle id="Oval-Copy-3" stroke-width="7" cx="148.5" cy="453.5" r="36.5"></circle>
                <polyline id="Line-Copy-5" stroke-width="8" stroke-linecap="square" transform="translate(119.071222, 534.275632) scale(1, -1) translate(-119.071222, -534.275632) " points="88 509.275632 150.142445 538.22784 150.142445 559.275632"></polyline>
                <polyline id="Line-Copy-7" stroke-width="8" stroke-linecap="square" points="88 152.275632 150.142445 181.22784 150.142445 227.18559"></polyline>
                <path d="M148.5,335.690236 L148.5,401.322661" id="Line-Copy-6" stroke-width="8" stroke-linecap="square"></path>
            </g>
            <g id="Group-2">
                <g id="Group-Copy" transform="translate(92.500000, 349.000000) scale(-1, 1) translate(-92.500000, -349.000000) ">
                    <circle id="Oval" stroke="#289EC5" stroke-width="7" cx="36.5" cy="134.5" r="36.5"></circle>
                    <circle id="Oval-Copy" stroke="#FDB323" stroke-width="7" cx="36.5" cy="343.5" r="36.5"></circle>
                    <circle id="Oval-Copy-2" stroke="#289EC5" stroke-width="7" cx="36.5" cy="567.5" r="36.5"></circle>
                    <path d="M36.5,0.544033122 L36.5,79.9992625" id="Line" stroke="#289EC5" stroke-width="8" stroke-linecap="square"></path>
                    <path d="M36.5,189.994658 L36.5,238.314042" id="Line-Copy-2" stroke="#FDB323" stroke-width="8" stroke-linecap="square"></path>
                    <path d="M36.5,697.001623 L36.5,619.967502" id="Line-Copy-3" stroke="#289EC5" stroke-width="8" stroke-linecap="square"></path>
                    <polyline id="Line-Copy-4" stroke="#289EC5" stroke-width="8" stroke-linecap="square" points="88 149.656542 150.142445 184.8642 150.142445 283"></polyline>
                    <circle id="Oval-Copy-3" stroke="#289EC5" stroke-width="7" cx="148.5" cy="343.5" r="36.5"></circle>
                    <polyline id="Line-Copy-5" stroke="#289EC5" stroke-width="8" stroke-linecap="square" transform="translate(119.071222, 484.663448) scale(1, -1) translate(-119.071222, -484.663448) " points="88 410.051264 150.142445 452.32274 150.142445 559.275632"></polyline>
                </g>
            </g>
        </g>
    </g>
</svg>