<?xml version="1.0" encoding="UTF-8" standalone="no"?>
<svg width="711px" height="312px" viewBox="0 0 711 312" version="1.1" xmlns="http://www.w3.org/2000/svg" xmlns:xlink="http://www.w3.org/1999/xlink">
    <!-- Generator: Sketch 49.3 (51167) - http://www.bohemiancoding.com/sketch -->
    <title>1*qSYzfDqtyL6ESBzvxatL4A</title>
    <desc>Created with Sketch.</desc>
    <defs>
        <polyline id="path-1" points="88 405.076172 150.142445 447.347648 150.142445 559.275632"></polyline>
    </defs>
    <g id="Page-1" stroke="none" stroke-width="1" fill="none" fill-rule="evenodd">
        <g id="1*qSYzfDqtyL6ESBzvxatL4A" transform="translate(6.000000, 7.000000)">
            <g id="Group-3" transform="translate(349.500000, 149.000000) rotate(90.000000) translate(-349.500000, -149.000000) translate(201.000000, -200.000000)">
                <g id="Group" transform="translate(112.000000, 0.000000)" stroke="#FDB323" stroke-width="14">
                    <circle id="Oval" cx="36.5" cy="134.5" r="36.5"></circle>
                    <circle id="Oval-Copy-2" cx="36.5" cy="567.5" r="36.5"></circle>
                    <path d="M36.5,0.544033122 L36.5,79.9992625" id="Line" stroke-linecap="round"></path>
                    <path d="M36.5,190.994658 L36.5,292.5" id="Line-Copy-2" stroke-linecap="round"></path>
                    <path d="M36.5,407.5 L36.5,507.019524" id="Line-Copy" stroke-linecap="round"></path>
                    <path d="M36.5,697.001623 L36.5,619.967502" id="Line-Copy-3" stroke-linecap="round"></path>
                    <circle id="Oval-Copy-4" cx="148.5" cy="257.5" r="36.5"></circle>
                    <circle id="Oval-Copy-3" cx="148.5" cy="453.5" r="36.5"></circle>
                    <polyline id="Line-Copy-5" stroke-linecap="round" transform="translate(119.071222, 534.275632) scale(-1, 1) rotate(-180.000000) translate(-119.071222, -534.275632) " points="88 509.275632 150.142445 538.22784 150.142445 559.275632"></polyline>
                    <polyline id="Line-Copy-7" stroke-linecap="round" points="88 152.275632 150.142445 181.22784 150.142445 205.223305"></polyline>
                    <path d="M148.5,313.630542 L148.5,396.322661" id="Line-Copy-6" stroke-linecap="round"></path>
                </g>
                <g id="Group-2">
                    <g id="Group-Copy" transform="translate(92.500000, 349.000000) scale(-1, 1) translate(-92.500000, -349.000000) ">
                        <circle id="Oval" stroke="#289EC5" stroke-width="14" cx="36.5" cy="134.5" r="36.5"></circle>
                        <circle id="Oval-Copy" stroke="#FDB323" stroke-width="14" cx="36.5" cy="349.5" r="36.5"></circle>
                        <circle id="Oval-Copy-2" stroke="#289EC5" stroke-width="14" cx="36.5" cy="567.5" r="36.5"></circle>
                        <path d="M36.5,0.544033122 L36.5,79.9992625" id="Line" stroke="#289EC5" stroke-width="14" stroke-linecap="round"></path>
                        <path d="M36.5,189.994658 L36.5,238.314042" id="Line-Copy-2" stroke="#FDB323" stroke-width="14" stroke-linecap="round"></path>
                        <path d="M36.5,697.001623 L36.5,619.967502" id="Line-Copy-3" stroke="#289EC5" stroke-width="14" stroke-linecap="round"></path>
                        <polyline id="Line-Copy-4" stroke="#289EC5" stroke-width="14" stroke-linecap="round" points="88 149.656542 150.142445 184.8642 150.142445 293.609012"></polyline>
                        <circle id="Oval-Copy-3" stroke="#289EC5" stroke-width="14" cx="148.5" cy="349.5" r="36.5"></circle>
                        <g id="Line-Copy-5" stroke-linecap="round" transform="translate(119.071222, 482.175902) scale(-1, 1) rotate(-180.000000) translate(-119.071222, -482.175902) ">
                            <use stroke="#289EC5" stroke-width="14" xlink:href="#path-1"></use>
                            <use stroke="#979797" stroke-width="1" xlink:href="#path-1"></use>
                        </g>
                    </g>
                </g>
            </g>
        </g>
    </g>
</svg>