<?xml version="1.0" encoding="UTF-8" standalone="no"?>
<svg width="588px" height="395px" viewBox="0 0 588 395" version="1.1" xmlns="http://www.w3.org/2000/svg" xmlns:xlink="http://www.w3.org/1999/xlink">
    <!-- Generator: Sketch 49.3 (51167) - http://www.bohemiancoding.com/sketch -->
    <title>Group</title>
    <desc>Created with Sketch.</desc>
    <defs></defs>
    <g id="Page-1" stroke="none" stroke-width="1" fill="none" fill-rule="evenodd">
        <g id="Group">
            <rect id="Rectangle" stroke-opacity="0.0334295743" stroke="#979797" x="0.5" y="0.5" width="587" height="394"></rect>
            <path d="M162.4375,60 C146.185547,60 133,73.1975446 133,89.4642857 L133,305.535714 C133,321.802455 146.185547,335 162.4375,335 L417.5625,335 C433.814453,335 447,321.802455 447,305.535714 L447,89.4642857 C447,73.1975446 433.814453,60 417.5625,60 L162.4375,60 Z M162.4375,79.6428571 L227.445313,79.6428571 C229.469141,79.6428571 231.125,81.3002232 231.125,83.3258929 L231.125,95.6026786 C231.125,97.6283482 229.469141,99.2857143 227.445313,99.2857143 L156.304687,99.2857143 C154.280859,99.2857143 152.625,97.6283482 152.625,95.6026786 L152.625,89.4642857 C152.625,84.0625 157.040625,79.6428571 162.4375,79.6428571 Z M423.695313,138.571429 L156.304687,138.571429 C154.280859,138.571429 152.625,136.914062 152.625,134.888393 L152.625,112.790179 C152.625,110.764509 154.280859,109.107143 156.304687,109.107143 L240.9375,109.107143 L259.458594,81.3002232 C260.133203,80.2566964 261.298438,79.6428571 262.525,79.6428571 L417.5625,79.6428571 C422.959375,79.6428571 427.375,84.0625 427.375,89.4642857 L427.375,134.888393 C427.375,136.914062 425.719141,138.571429 423.695313,138.571429 Z M290,300.625 C249.400781,300.625 216.40625,267.600446 216.40625,226.964286 C216.40625,186.328125 249.400781,153.303571 290,153.303571 C330.599219,153.303571 363.59375,186.328125 363.59375,226.964286 C363.59375,267.600446 330.599219,300.625 290,300.625 Z M290,172.946429 C260.255859,172.946429 236.03125,197.19308 236.03125,226.964286 C236.03125,256.735491 260.255859,280.982143 290,280.982143 C319.744141,280.982143 343.96875,256.735491 343.96875,226.964286 C343.96875,197.19308 319.744141,172.946429 290,172.946429 Z M260.5625,236.785714 C255.165625,236.785714 250.75,232.366071 250.75,226.964286 C250.75,205.295759 268.351172,187.678571 290,187.678571 C295.396875,187.678571 299.8125,192.098214 299.8125,197.5 C299.8125,202.901786 295.396875,207.321429 290,207.321429 C279.20625,207.321429 270.375,216.160714 270.375,226.964286 C270.375,232.366071 265.959375,236.785714 260.5625,236.785714 Z" id="Shape" fill="#FFFFFF" fill-rule="nonzero"></path>
        </g>
    </g>
</svg>