<?xml version="1.0" encoding="UTF-8" standalone="no"?>
<svg width="588px" height="395px" viewBox="0 0 588 395" version="1.1" xmlns="http://www.w3.org/2000/svg" xmlns:xlink="http://www.w3.org/1999/xlink">
    <!-- Generator: Sketch 49.3 (51167) - http://www.bohemiancoding.com/sketch -->
    <title>Group</title>
    <desc>Created with Sketch.</desc>
    <defs></defs>
    <g id="Page-1" stroke="none" stroke-width="1" fill="none" fill-rule="evenodd">
        <g id="Group">
            <rect id="Rectangle" stroke-opacity="0.0334295743" stroke="#979797" x="0.5" y="0.5" width="587" height="394"></rect>
            <g id="car-solid" transform="translate(121.000000, 70.000000)" fill="#FFFFFF" fill-rule="nonzero">
                <path d="M330.069573,74.0833333 L290.545964,74.0833333 L279.560949,46.5666667 C268.272262,18.2760937 241.331249,0 210.917809,0 L127.077851,0 C96.6710123,0 69.7233974,18.2760937 58.4281086,46.5666667 L47.4430936,74.0833333 L7.92608652,74.0833333 C2.77025917,74.0833333 -1.0124413,78.9384375 0.241857285,83.9456771 L4.20280019,99.8206771 C5.0808092,103.352865 8.24956353,105.833333 11.8870294,105.833333 L25.1363834,105.833333 C16.2704729,113.59224 10.5601136,124.870104 10.5601136,137.583333 L10.5601136,169.333333 C10.5601136,179.996042 14.6266816,189.62026 21.122628,197.068281 L21.122628,232.833333 C21.122628,244.521302 30.5826799,254 42.2476568,254 L63.3726856,254 C75.0376625,254 84.4977145,244.521302 84.4977145,232.833333 L84.4977145,211.666667 L253.497945,211.666667 L253.497945,232.833333 C253.497945,244.521302 262.957997,254 274.622974,254 L295.748003,254 C307.41298,254 316.873032,244.521302 316.873032,232.833333 L316.873032,197.068281 C323.368978,189.626875 327.435546,180.002656 327.435546,169.333333 L327.435546,137.583333 C327.435546,124.870104 321.725187,113.59224 312.865878,105.833333 L326.115232,105.833333 C329.752698,105.833333 332.921452,103.352865 333.799461,99.8206771 L337.760404,83.9456771 C339.008101,78.9384375 335.2254,74.0833333 330.069573,74.0833333 Z M97.6546465,62.2895312 C102.467192,50.2377604 114.118966,42.3333333 127.077851,42.3333333 L210.917809,42.3333333 C223.876694,42.3333333 235.528467,50.2377604 240.341013,62.2895312 L253.497945,95.25 L84.4977145,95.25 L97.6546465,62.2895312 Z M63.3726856,169.201042 C50.6976683,169.201042 42.2476568,160.760833 42.2476568,148.100521 C42.2476568,135.440208 50.6976683,127 63.3726856,127 C76.0477029,127 95.0602289,145.990469 95.0602289,158.650781 C95.0602289,171.311094 76.0477029,169.201042 63.3726856,169.201042 Z M274.622974,169.201042 C261.947957,169.201042 242.935431,171.311094 242.935431,158.650781 C242.935431,145.990469 261.947957,127 274.622974,127 C287.297991,127 295.748003,135.440208 295.748003,148.100521 C295.748003,160.760833 287.297991,169.201042 274.622974,169.201042 Z" id="Shape"></path>
            </g>
        </g>
    </g>
</svg>