<?xml version="1.0" encoding="UTF-8" standalone="no"?>
<svg width="588px" height="395px" viewBox="0 0 588 395" version="1.1" xmlns="http://www.w3.org/2000/svg" xmlns:xlink="http://www.w3.org/1999/xlink">
    <!-- Generator: Sketch 49.3 (51167) - http://www.bohemiancoding.com/sketch -->
    <title>home-solid</title>
    <desc>Created with Sketch.</desc>
    <defs></defs>
    <g id="Page-1" stroke="none" stroke-width="1" fill="none" fill-rule="evenodd">
        <g id="home-solid">
            <rect id="Rectangle-Copy" stroke-opacity="0.0334295743" stroke="#979797" x="0.5" y="0.5" width="587" height="394"></rect>
            <path d="M408.118963,229.369897 L408.118963,311.342454 C408.118963,318.950514 401.998193,325.071284 394.390133,325.071284 L328.03412,325.071284 C324.258692,325.071284 321.169705,321.982297 321.169705,318.206869 L321.169705,254.138995 C321.169705,250.363566 318.080719,247.27458 314.30529,247.27458 L273.1188,247.27458 C269.343372,247.27458 266.254385,250.363566 266.254385,254.138995 L266.254385,318.206869 C266.254385,321.982297 263.165398,325.071284 259.38997,325.071284 L193.033957,325.071284 C185.425897,325.071284 179.305127,318.950514 179.305127,311.342454 L179.305127,229.369897 C179.305127,227.310572 180.220383,225.365655 181.82208,224.049975 L289.364582,135.499021 C291.881534,133.439696 295.542556,133.439696 298.116711,135.499021 L405.659214,224.049975 C407.203708,225.365655 408.118963,227.310572 408.118963,229.369897 Z M455.941055,194.532991 L408.118963,155.119807 L408.118963,75.8930168 C408.118963,72.1175885 405.029976,69.0286017 401.254548,69.0286017 L369.220611,69.0286017 C365.445183,69.0286017 362.356196,72.1175885 362.356196,75.8930168 L362.356196,117.422728 L311.1591,75.2637787 C301.034088,66.9120738 286.390002,66.9120738 276.26499,75.2637787 L131.483036,194.532991 C128.565659,196.935536 128.165235,201.282999 130.56778,204.200375 L145.154662,221.933447 C147.557208,224.850824 151.904671,225.251248 154.822047,222.848703 L289.364582,112.045603 C291.881534,109.986278 295.542556,109.986278 298.116711,112.045603 L432.659247,222.848703 C435.576623,225.251248 439.924086,224.850824 442.326631,221.933447 L456.913513,204.200375 C459.316059,201.225795 458.858431,196.935536 455.941055,194.532991 Z" id="Shape" fill="#FFFFFF" fill-rule="nonzero"></path>
        </g>
    </g>
</svg>